<svg xmlns="http://www.w3.org/2000/svg" width="64" height="64" viewBox="0 0 64 64">
  <rect width="64" height="64" rx="14" fill="#F2F3F7"/>
  <path d="M56.57 27.79Q59.00 32.00 56.57 36.21L47.93 51.17Q45.50 55.38 40.64 55.38L23.36 55.38Q18.50 55.38 16.07 51.17L7.43 36.21Q5.00 32.00 7.43 27.79L16.07 12.83Q18.50 8.62 23.36 8.62L40.64 8.62Q45.50 8.62 47.93 12.83ZM31.00 22.99a6.20 6.20 0 1 0 12.40 0a6.20 6.20 0 1 0 -12.40 0ZM31.00 41.01a6.20 6.20 0 1 0 12.40 0a6.20 6.20 0 1 0 -12.40 0ZM15.40 32.00a6.20 6.20 0 1 0 12.40 0a6.20 6.20 0 1 0 -12.40 0Z" fill="#101018" fill-rule="evenodd"/>
</svg>
